<svg width="82" height="17" viewBox="0 0 82 17" fill="none" xmlns="http://www.w3.org/2000/svg">
<path d="M8.2 0L10.041 5.66606H15.9987L11.1788 9.16788L13.0198 14.8339L8.2 11.3321L3.38016 14.8339L5.22118 9.16788L0.401337 5.66606H6.35898L8.2 0Z" fill="#FFDB80"/>
<path d="M24.5999 0L26.4409 5.66606H32.3986L27.5787 9.16788L29.4197 14.8339L24.5999 11.3321L19.7801 14.8339L21.6211 9.16788L16.8012 5.66606H22.7589L24.5999 0Z" fill="#FFDB80"/>
<path d="M41 0L42.8411 5.66606H48.7987L43.9789 9.16788L45.8199 14.8339L41 11.3321L36.1802 14.8339L38.0212 9.16788L33.2014 5.66606H39.159L41 0Z" fill="#FFDB80"/>
<path d="M57.4 0L59.241 5.66606H65.1986L60.3788 9.16788L62.2198 14.8339L57.4 11.3321L52.5801 14.8339L54.4211 9.16788L49.6013 5.66606H55.5589L57.4 0Z" fill="#FFDB80"/>
<path d="M73.8001 0L75.6411 5.66606H81.5988L76.7789 9.16788L78.6199 14.8339L73.8001 11.3321L68.9803 14.8339L70.8213 9.16788L66.0014 5.66606H71.9591L73.8001 0Z" fill="#C4C4C4"/>
</svg>
