<svg width="29" height="29" viewBox="0 0 29 29" fill="none" xmlns="http://www.w3.org/2000/svg">
<path d="M10.875 26.5833C11.5423 26.5833 12.0833 26.0423 12.0833 25.375C12.0833 24.7077 11.5423 24.1667 10.875 24.1667C10.2076 24.1667 9.66663 24.7077 9.66663 25.375C9.66663 26.0423 10.2076 26.5833 10.875 26.5833Z" stroke="white" stroke-width="2" stroke-linecap="round" stroke-linejoin="round"/>
<path d="M24.1667 26.5833C24.8341 26.5833 25.375 26.0423 25.375 25.375C25.375 24.7077 24.8341 24.1667 24.1667 24.1667C23.4994 24.1667 22.9584 24.7077 22.9584 25.375C22.9584 26.0423 23.4994 26.5833 24.1667 26.5833Z" stroke="white" stroke-width="2" stroke-linecap="round" stroke-linejoin="round"/>
<path d="M1.20837 1.20834H6.04171L9.28004 17.3879C9.39054 17.9442 9.69318 18.444 10.135 18.7996C10.5768 19.1553 11.1296 19.3442 11.6967 19.3333H23.4417C24.0088 19.3442 24.5616 19.1553 25.0034 18.7996C25.4452 18.444 25.7479 17.9442 25.8584 17.3879L27.7917 7.25H7.25004" stroke="white" stroke-width="2" stroke-linecap="round" stroke-linejoin="round"/>
</svg>
