<svg width="73" height="12" viewBox="0 0 73 12" fill="none" xmlns="http://www.w3.org/2000/svg">
<circle cx="5.5" cy="5.5" r="5.5" fill="#59DC44"/>
<path d="M20.5596 9H19.6514V2.97949L17.8301 3.64844V2.82812L20.418 1.85645H20.5596V9ZM27.6641 5.96777C27.6641 7.02572 27.4834 7.81185 27.1221 8.32617C26.7607 8.84049 26.196 9.09766 25.4277 9.09766C24.6693 9.09766 24.1077 8.84701 23.7432 8.3457C23.3786 7.84115 23.1898 7.08919 23.1768 6.08984V4.88379C23.1768 3.83887 23.3574 3.0625 23.7188 2.55469C24.0801 2.04688 24.6465 1.79297 25.418 1.79297C26.1829 1.79297 26.7461 2.03874 27.1074 2.53027C27.4688 3.01855 27.6543 3.77376 27.6641 4.7959V5.96777ZM26.7607 4.73242C26.7607 3.96745 26.6533 3.41081 26.4385 3.0625C26.2236 2.71094 25.8835 2.53516 25.418 2.53516C24.9557 2.53516 24.6188 2.70931 24.4072 3.05762C24.1956 3.40592 24.0866 3.94141 24.0801 4.66406V6.10938C24.0801 6.8776 24.1908 7.44564 24.4121 7.81348C24.6367 8.17806 24.9753 8.36035 25.4277 8.36035C25.8737 8.36035 26.2041 8.18783 26.4189 7.84277C26.637 7.49772 26.751 6.9541 26.7607 6.21191V4.73242ZM31.502 5.18652H33.4844V6.04102H31.502V8.28711H30.5938V6.04102H28.6113V5.18652H30.5938V3.11133H31.502V5.18652ZM41.5312 6.41699C41.5312 7.22103 41.3473 7.86882 40.9795 8.36035C40.6117 8.85189 40.1136 9.09766 39.4854 9.09766C38.8441 9.09766 38.3395 8.89421 37.9717 8.4873V11.0312H37.0684V3.7168H37.8936L37.9375 4.30273C38.3053 3.84701 38.8164 3.61914 39.4707 3.61914C40.1055 3.61914 40.6068 3.8584 40.9746 4.33691C41.3457 4.81543 41.5312 5.48112 41.5312 6.33398V6.41699ZM40.6279 6.31445C40.6279 5.71875 40.501 5.24837 40.2471 4.90332C39.9932 4.55827 39.6449 4.38574 39.2021 4.38574C38.6553 4.38574 38.2451 4.62826 37.9717 5.11328V7.6377C38.2419 8.11947 38.6553 8.36035 39.2119 8.36035C39.6449 8.36035 39.9883 8.18945 40.2422 7.84766C40.4993 7.5026 40.6279 6.99154 40.6279 6.31445ZM45.9453 9C45.8932 8.89583 45.8509 8.71029 45.8184 8.44336C45.3984 8.87956 44.8971 9.09766 44.3145 9.09766C43.7936 9.09766 43.3656 8.95117 43.0303 8.6582C42.6982 8.36198 42.5322 7.98763 42.5322 7.53516C42.5322 6.98503 42.7406 6.55859 43.1572 6.25586C43.5771 5.94987 44.1663 5.79688 44.9248 5.79688H45.8037V5.38184C45.8037 5.06608 45.7093 4.81543 45.5205 4.62988C45.3317 4.44108 45.0534 4.34668 44.6855 4.34668C44.3633 4.34668 44.0931 4.42806 43.875 4.59082C43.6569 4.75358 43.5479 4.95052 43.5479 5.18164H42.6396C42.6396 4.91797 42.7324 4.66406 42.918 4.41992C43.1068 4.17253 43.3607 3.97721 43.6797 3.83398C44.002 3.69076 44.3551 3.61914 44.7393 3.61914C45.348 3.61914 45.8249 3.77214 46.1699 4.07812C46.515 4.38086 46.694 4.79915 46.707 5.33301V7.76465C46.707 8.24967 46.7689 8.63542 46.8926 8.92188V9H45.9453ZM44.4463 8.31152C44.7295 8.31152 44.998 8.23828 45.252 8.0918C45.5059 7.94531 45.6898 7.75488 45.8037 7.52051V6.43652H45.0957C43.9889 6.43652 43.4355 6.76042 43.4355 7.4082C43.4355 7.69141 43.5299 7.91276 43.7188 8.07227C43.9076 8.23177 44.1501 8.31152 44.4463 8.31152ZM45.8867 2.07129C45.8867 2.35449 45.7858 2.59212 45.584 2.78418C45.3822 2.97298 45.1331 3.06738 44.8369 3.06738C44.5374 3.06738 44.2868 2.97135 44.085 2.7793C43.8864 2.58724 43.7871 2.35124 43.7871 2.07129C43.7871 1.79134 43.8864 1.55208 44.085 1.35352C44.2868 1.15495 44.5374 1.05566 44.8369 1.05566C45.1364 1.05566 45.3854 1.15495 45.584 1.35352C45.7858 1.55208 45.8867 1.79134 45.8867 2.07129ZM44.2705 2.07129C44.2705 2.22428 44.3242 2.35612 44.4316 2.4668C44.5423 2.57747 44.6774 2.63281 44.8369 2.63281C44.9932 2.63281 45.1266 2.5791 45.2373 2.47168C45.348 2.36426 45.4033 2.23079 45.4033 2.07129C45.4033 1.91178 45.348 1.77669 45.2373 1.66602C45.1299 1.55208 44.9964 1.49512 44.8369 1.49512C44.6742 1.49512 44.5391 1.55208 44.4316 1.66602C44.3242 1.77995 44.2705 1.91504 44.2705 2.07129ZM51.585 9H50.6816V1.5H51.585V9ZM56.2969 9C56.2448 8.89583 56.2025 8.71029 56.1699 8.44336C55.75 8.87956 55.2487 9.09766 54.666 9.09766C54.1452 9.09766 53.7171 8.95117 53.3818 8.6582C53.0498 8.36198 52.8838 7.98763 52.8838 7.53516C52.8838 6.98503 53.0921 6.55859 53.5088 6.25586C53.9287 5.94987 54.5179 5.79688 55.2764 5.79688H56.1553V5.38184C56.1553 5.06608 56.0609 4.81543 55.8721 4.62988C55.6833 4.44108 55.4049 4.34668 55.0371 4.34668C54.7148 4.34668 54.4447 4.42806 54.2266 4.59082C54.0085 4.75358 53.8994 4.95052 53.8994 5.18164H52.9912C52.9912 4.91797 53.084 4.66406 53.2695 4.41992C53.4583 4.17253 53.7122 3.97721 54.0312 3.83398C54.3535 3.69076 54.7067 3.61914 55.0908 3.61914C55.6995 3.61914 56.1764 3.77214 56.5215 4.07812C56.8665 4.38086 57.0456 4.79915 57.0586 5.33301V7.76465C57.0586 8.24967 57.1204 8.63542 57.2441 8.92188V9H56.2969ZM54.7979 8.31152C55.0811 8.31152 55.3496 8.23828 55.6035 8.0918C55.8574 7.94531 56.0413 7.75488 56.1553 7.52051V6.43652H55.4473C54.3405 6.43652 53.7871 6.76042 53.7871 7.4082C53.7871 7.69141 53.8815 7.91276 54.0703 8.07227C54.2591 8.23177 54.5016 8.31152 54.7979 8.31152ZM58.2598 6.31445C58.2598 5.49089 58.4502 4.83659 58.8311 4.35156C59.2119 3.86328 59.7165 3.61914 60.3447 3.61914C60.9893 3.61914 61.4922 3.84701 61.8535 4.30273L61.8975 3.7168H62.7227V8.87305C62.7227 9.55664 62.5192 10.0954 62.1123 10.4893C61.7087 10.8831 61.165 11.0801 60.4814 11.0801C60.1006 11.0801 59.7279 10.9987 59.3633 10.8359C58.9987 10.6732 58.7204 10.4502 58.5283 10.167L58.9971 9.625C59.3844 10.1035 59.8581 10.3428 60.418 10.3428C60.8574 10.3428 61.1992 10.2191 61.4434 9.97168C61.6908 9.72428 61.8145 9.37598 61.8145 8.92676V8.47266C61.4531 8.88932 60.96 9.09766 60.335 9.09766C59.7165 9.09766 59.2152 8.84863 58.8311 8.35059C58.4502 7.85254 58.2598 7.17383 58.2598 6.31445ZM59.168 6.41699C59.168 7.0127 59.29 7.48145 59.5342 7.82324C59.7783 8.16178 60.1201 8.33105 60.5596 8.33105C61.1292 8.33105 61.5475 8.07227 61.8145 7.55469V5.14258C61.5378 4.63802 61.1227 4.38574 60.5693 4.38574C60.1299 4.38574 59.7865 4.55664 59.5391 4.89844C59.2917 5.24023 59.168 5.74642 59.168 6.41699ZM66.2822 9.09766C65.5661 9.09766 64.9834 8.86328 64.5342 8.39453C64.085 7.92253 63.8604 7.29264 63.8604 6.50488V6.33887C63.8604 5.81478 63.9596 5.34766 64.1582 4.9375C64.36 4.52409 64.64 4.20182 64.998 3.9707C65.3594 3.73633 65.75 3.61914 66.1699 3.61914C66.8568 3.61914 67.3906 3.84538 67.7715 4.29785C68.1523 4.75033 68.3428 5.39811 68.3428 6.24121V6.61719H64.7637C64.7767 7.13802 64.9281 7.55957 65.2178 7.88184C65.5107 8.20085 65.8818 8.36035 66.3311 8.36035C66.6501 8.36035 66.9202 8.29525 67.1416 8.16504C67.363 8.03483 67.5566 7.8623 67.7227 7.64746L68.2744 8.07715C67.8317 8.75749 67.1676 9.09766 66.2822 9.09766ZM66.1699 4.36133C65.8053 4.36133 65.4993 4.49479 65.252 4.76172C65.0046 5.02539 64.8516 5.39648 64.793 5.875H67.4395V5.80664C67.4134 5.34766 67.2897 4.99284 67.0684 4.74219C66.847 4.48828 66.5475 4.36133 66.1699 4.36133ZM71.9463 4.52734C71.8096 4.50456 71.6615 4.49316 71.502 4.49316C70.9095 4.49316 70.5075 4.74544 70.2959 5.25V9H69.3926V3.7168H70.2715L70.2861 4.32715C70.5824 3.85514 71.0023 3.61914 71.5459 3.61914C71.7217 3.61914 71.8551 3.64193 71.9463 3.6875V4.52734Z" fill="black"/>
</svg>
